<svg xmlns="http://www.w3.org/2000/svg" viewBox="0 0 512 512">
  <!-- Background -->
  <rect width="512" height="512" rx="96" fill="#1a1a2e"/>

  <!-- Bulb body -->
  <path
    d="M340 200c0-50-38-90-84-90s-84 40-84 90c0 23 8 44 22 60l19 34c5 9 7 15 15 15h56c8 0 11-6 15-15l20-34c14-16 21-37 21-60z"
    fill="#FFE46A"/>

  <!-- Filament (simplified) -->
  <ellipse cx="256" cy="195" rx="18" ry="28" fill="#FAAF63" opacity="0.7"/>

  <!-- Base bands -->
  <rect x="222" y="316" width="68" height="14" rx="7" fill="#ABBDDB"/>
  <rect x="222" y="336" width="68" height="14" rx="7" fill="#6B83A5"/>
  <rect x="222" y="356" width="68" height="14" rx="7" fill="#ABBDDB"/>

  <!-- Tip -->
  <path d="M246 376c0 0 0 20 10 20s10-20 10-20z" fill="#6B83A5"/>

  <!-- Glow -->
  <circle cx="256" cy="200" r="100" fill="url(#glow)" opacity="0.3"/>
  <defs>
    <radialGradient id="glow">
      <stop offset="0%" stop-color="#FFE46A"/>
      <stop offset="100%" stop-color="#FFE46A" stop-opacity="0"/>
    </radialGradient>
  </defs>
</svg>
